<svg xmlns="http://www.w3.org/2000/svg" viewBox="0 0 300 380" width="300" height="380">
  <!-- T-shirt body -->
  <path d="M90 85 L80 55 Q75 50 90 45 L110 55 Q115 65 110 75 L130 75 L130 340 L170 340 L170 75 L190 75 Q185 65 190 55 L210 45 Q225 50 220 55 L210 85 Q200 100 190 120 L175 120 L175 340 L125 340 L125 120 L110 120 Q100 100 90 85 Z"
    fill="#e8e8e8" stroke="#ccc" stroke-width="1.5"/>
  <!-- Collar -->
  <path d="M120 85 Q135 100 150 85 Q135 75 120 85 Z"
    fill="#d0d0d0" stroke="#bbb" stroke-width="1"/>
</svg>
